<?xml version="1.0"?>
<svg xmlns="http://www.w3.org/2000/svg" xmlns:xlink="http://www.w3.org/1999/xlink" version="1.1" id="Layer_1" x="0px" y="0px" viewBox="0 0 512 512" style="enable-background:new 0 0 512 512;width: 20px;height: 20px;" xml:space="preserve" width="512px" height="512px" class=""><g><script xmlns="" id="tinyhippos-injected"/><path style="fill: #00AF80;" d="M302.413,256L502.378,56.034c12.826-12.823,12.831-33.586,0.001-46.412  c-12.825-12.827-33.586-12.83-46.413-0.001L256,209.587L56.034,9.622C43.211-3.204,22.447-3.208,9.621,9.62  c-12.827,12.826-12.828,33.586,0,46.413L209.585,256L9.62,455.965c-12.797,12.797-12.797,33.618,0,46.413  c12.825,12.827,33.587,12.829,46.413,0l199.965-199.967l199.965,199.965c12.823,12.827,33.587,12.828,46.412,0.001  c12.827-12.825,12.83-33.586,0.001-46.415L302.413,256z" data-original="#FF7976" class="active-path"/><path style="fill:#00AF80" d="M302.413,256L502.378,56.034c12.826-12.823,12.831-33.586,0.001-46.412  c-12.825-12.827-33.586-12.83-46.413-0.001L256,209.586v92.828l199.965,199.965c12.823,12.827,33.587,12.828,46.412,0.001  c12.827-12.825,12.83-33.586,0.001-46.415L302.413,256z" data-original="#FF5752" class="" data-old_color="#FF5752"/></g> </svg>
